<svg width="128" height="128" viewBox="0 0 128 128" fill="none" xmlns="http://www.w3.org/2000/svg">
<g clip-path="url(#clip0_2026_2)">
<path d="M104 0H24C10.7452 0 0 10.7452 0 24V104C0 117.255 10.7452 128 24 128H104C117.255 128 128 117.255 128 104V24C128 10.7452 117.255 0 104 0Z" fill="#1A73E8"/>
<path opacity="0.9" d="M104 35H24C21.7909 35 20 36.7909 20 39V51C20 53.2091 21.7909 55 24 55H104C106.209 55 108 53.2091 108 51V39C108 36.7909 106.209 35 104 35Z" fill="white"/>
<path opacity="0.9" d="M104 60H24C21.7909 60 20 61.7909 20 64V111C20 113.209 21.7909 115 24 115H104C106.209 115 108 113.209 108 111V64C108 61.7909 106.209 60 104 60Z" fill="white"/>
<g opacity="0.3">
<path d="M20 75H108" stroke="#1A73E8" stroke-width="1.5"/>
<path d="M20 90H108" stroke="#1A73E8" stroke-width="1.5"/>
<path d="M20 105H108" stroke="#1A73E8" stroke-width="1.5"/>
<path d="M42 60V115" stroke="#1A73E8" stroke-width="1.5"/>
<path d="M64 60V115" stroke="#1A73E8" stroke-width="1.5"/>
<path d="M86 60V115" stroke="#1A73E8" stroke-width="1.5"/>
</g>
<path d="M67 97C72.5228 97 77 92.5228 77 87C77 81.4772 72.5228 77 67 77C61.4772 77 57 81.4772 57 87C57 92.5228 61.4772 97 67 97Z" fill="#34A853"/>
<path d="M67 87C69.2091 87 71 85.2091 71 83C71 80.7909 69.2091 79 67 79C64.7909 79 63 80.7909 63 83C63 85.2091 64.7909 87 67 87Z" fill="white"/>
<path d="M67 88C61 88 59 93 59 95H75C75 93 73 88 67 88Z" fill="white"/>
<path d="M87 97C92.5228 97 97 92.5228 97 87C97 81.4772 92.5228 77 87 77C81.4772 77 77 81.4772 77 87C77 92.5228 81.4772 97 87 97Z" fill="#FBBC04"/>
<path d="M87 87C89.2091 87 91 85.2091 91 83C91 80.7909 89.2091 79 87 79C84.7909 79 83 80.7909 83 83C83 85.2091 84.7909 87 87 87Z" fill="white"/>
<path d="M87 88C81 88 79 93 79 95H95C95 93 93 88 87 88Z" fill="white"/>
<path d="M107 97C112.523 97 117 92.5228 117 87C117 81.4772 112.523 77 107 77C101.477 77 97 81.4772 97 87C97 92.5228 101.477 97 107 97Z" fill="#EA4335"/>
<path d="M107 87C109.209 87 111 85.2091 111 83C111 80.7909 109.209 79 107 79C104.791 79 103 80.7909 103 83C103 85.2091 104.791 87 107 87Z" fill="white"/>
<path d="M107 88C101 88 99 93 99 95H115C115 93 113 88 107 88Z" fill="white"/>
</g>
<defs>
<clipPath id="clip0_2026_2">
<rect width="128" height="128" fill="white"/>
</clipPath>
</defs>
</svg>
